<?xml version="1.0" encoding="UTF-8"?>
<!DOCTYPE svg PUBLIC "-//W3C//DTD SVG 1.0//EN" "http://www.w3.org/TR/2001/REC-SVG-20010904/DTD/svg10.dtd">
<!-- Creator: CorelDRAW X7 -->
<svg xmlns="http://www.w3.org/2000/svg" xml:space="preserve" width="301px" height="84px" version="1.0" style="shape-rendering:geometricPrecision; text-rendering:geometricPrecision; image-rendering:optimizeQuality; fill-rule:evenodd; clip-rule:evenodd"
viewBox="0 0 301000 84126"
 xmlns:xlink="http://www.w3.org/1999/xlink">
 <defs>
  <style type="text/css">
   <![CDATA[
    .fil2 {fill:#444444}
    .fil0 {fill:#CE5993}
    .fil1 {fill:#444444;fill-rule:nonzero}
   ]]>
  </style>
 </defs>
 <g id="Layer_x0020_1">
  <metadata id="CorelCorpID_0Corel-Layer"/>
  <path class="fil0" d="M53118 1490c22408,6105 35624,29220 29518,51628 -6105,22408 -29220,35624 -51628,29518 -22408,-6105 -35623,-29220 -29518,-51628 6105,-22408 29220,-35623 51628,-29518zm8590 63147c-1525,-302 -2995,-625 -4408,-965 -10852,-2620 -20737,-6910 -25337,-11509 -2584,-2585 -4184,-6156 -4184,-10100 0,-18929 28568,-18929 28568,0l0 87 0 59c-21,6408 -3693,11009 -8044,13061 3386,1514 6295,2321 10865,3178 4315,-4104 6866,-9642 6998,-15804l1 -97 5 -291 1 -96 0 -10 0 -87c0,-13158 -11278,-23175 -24272,-23118 -12905,57 -24042,10051 -24042,23118l-1 0c-60,2497 281,4847 981,7029 4479,13960 19196,18674 30948,21978 3447,-782 9113,-3566 11921,-6433zm-3422 -5392c252,-216 498,-437 739,-661 -242,223 -488,445 -739,661z"/>
  <path class="fil1" d="M301000 47472c0,131 -65,1044 -195,2738l-26524 0c478,2172 1607,3889 3389,5148 1780,1261 3997,1890 6646,1890 1826,0 3444,-272 4855,-814 1413,-544 2727,-1402 3943,-2575l5410 5866c-3302,3780 -8125,5669 -14468,5669 -3954,0 -7451,-771 -10493,-2314 -3041,-1541 -5387,-3681 -7038,-6419 -1651,-2737 -2476,-5843 -2476,-9319 0,-3432 814,-6527 2443,-9286 1630,-2759 3867,-4910 6713,-6452 2846,-1542 6028,-2314 9547,-2314 3433,0 6539,739 9320,2216 2780,1477 4964,3595 6549,6354 1587,2759 2379,5963 2379,9612zm-18183 -10492c-2302,0 -4235,652 -5799,1956 -1564,1303 -2520,3084 -2868,5343l17270 0c-347,-2215 -1303,-3986 -2867,-5311 -1564,-1325 -3476,-1988 -5736,-1988z"/>
  <polygon class="fil1" points="265021,29812 250228,64873 239736,64873 225008,29812 235500,29812 245211,53664 255247,29812 "/>
  <path class="fil1" d="M207386 29290c5431,0 9603,1293 12513,3878 2911,2585 4367,6485 4367,11698l0 20007 -9515 0 0 -4366c-1912,3258 -5474,4887 -10688,4887 -2694,0 -5029,-456 -7006,-1368 -1977,-912 -3486,-2173 -4529,-3780 -1043,-1607 -1564,-3432 -1564,-5474 0,-3259 1227,-5822 3682,-7691 2455,-1867 6245,-2802 11372,-2802l8081 0c0,-2215 -673,-3920 -2020,-5116 -1347,-1194 -3367,-1791 -6061,-1791 -1868,0 -3704,293 -5507,879 -1803,586 -3334,1379 -4594,2379l-3650 -7104c1912,-1347 4204,-2390 6876,-3128 2671,-738 5420,-1108 8243,-1108zm-782 29261c1738,0 3281,-402 4628,-1205 1347,-804 2302,-1988 2867,-3552l0 -3584 -6973 0c-4171,0 -6256,1369 -6256,4105 0,1304 511,2336 1531,3096 1021,761 2423,1140 4203,1140z"/>
  <path class="fil1" d="M186378 29812l0 35061 -9646 0 0 -4170c-1347,1520 -2954,2682 -4823,3486 -1868,804 -3888,1205 -6060,1205 -4605,0 -8255,-1324 -10949,-3975 -2694,-2650 -4041,-6582 -4041,-11795l0 -19812 10167 0 0 18313c0,5648 2368,8471 7104,8471 2433,0 4388,-792 5865,-2378 1477,-1586 2216,-3943 2216,-7072l0 -17334 10167 0z"/>
  <path class="fil1" d="M96483 42063c0,-4475 1076,-8504 3227,-12089 2150,-3584 5126,-6397 8928,-8438 3802,-2043 8071,-3064 12806,-3064 4735,0 9004,1021 12805,3064 3802,2041 6778,4854 8928,8438 2151,3585 3227,7614 3227,12089 0,4475 -1076,8504 -3227,12089 -2150,3584 -5126,6397 -8928,8438 -3801,2043 -8070,3064 -12805,3064 -4735,0 -9004,-1021 -12806,-3064 -3802,-2041 -6778,-4854 -8928,-8438 -2151,-3585 -3227,-7614 -3227,-12089zm39233 0c0,-2824 -619,-5343 -1858,-7559 -1238,-2216 -2943,-3943 -5116,-5181 -2172,-1239 -4605,-1857 -7298,-1857 -2694,0 -5126,618 -7299,1857 -2173,1238 -3878,2965 -5116,5181 -1238,2216 -1858,4735 -1858,7559 0,2824 620,5344 1858,7559 1238,2216 2943,3943 5116,5181 2173,1239 4605,1858 7299,1858 2693,0 5126,-619 7298,-1858 2173,-1238 3878,-2965 5116,-5181 1239,-2215 1858,-4735 1858,-7559z"/>
  <polygon class="fil2" points="146187,64873 137796,64873 136020,64873 118116,44174 119892,44174 128283,44174 130059,44174 147963,64873 "/>
 </g>
</svg>
